<?xml version="1.0" encoding="UTF-8"?>
<svg width="173.2mm" height="221.03mm" version="1.1" viewBox="-5 -6 173.2 221.03" xml:space="preserve" xmlns="http://www.w3.org/2000/svg"><g transform="translate(-27.942 -23.223)" image-rendering="auto"><path d="m109.46 22.234c-44.974 0-81.565 36.596-81.565 81.578 0 32.139 13.456 64.651 38.913 94.019 19.013 21.934 37.857 34.361 38.651 34.879 1.2157 0.79457 2.6081 1.1911 4.0003 1.1911 1.3922 0 2.785-0.39657 4.0008-1.1911 0.79261-0.51866 19.638-12.945 38.652-34.879 25.458-29.368 38.915-61.879 38.915-94.019 0-44.982-36.591-81.578-81.568-81.578z" display="none" fill="#ec5453" stroke-width="0" style="paint-order:markers stroke fill"/><path d="m109.46 22.234c-36.233-0.63015-70.473 26.041-78.992 61.214-7.8754 33.348 3.6635 68.403 22.326 96.126 14.123 20.704 32.118 38.795 52.666 53.135 10.604 3.4217 18.14-9.2666 26.277-14.341 31.405-27.678 56.87-65.686 59.134-108.53 2.9023-34.044-18.06-68.289-49.691-81.187-9.9989-4.2472-20.858-6.4315-31.72-6.4209z" fill="#ec5453" image-rendering="auto" stroke="#ffc" stroke-width="10" style="paint-order:stroke fill markers"/><path transform="translate(4.4595)" d="m133.85 132.4q0 1.5072-0.12058 2.5924-0.0603 1.0249-0.24116 1.8087-0.18087 0.72347-0.48231 1.2661-0.30145 0.5426-0.96463 1.2661-0.66318 0.66318-2.5924 1.7484-1.869 1.0852-4.6422 2.1101-2.713 0.96462-6.2701 1.6278-3.4968 0.66318-7.5964 0.66318-8.0184 0-14.469-2.4718-6.4509-2.4718-10.973-7.3553-4.5217-4.9437-6.9332-12.299-2.4116-7.3553-2.4116-17.122 0-9.9477 2.6527-17.665t7.4156-12.962q4.7628-5.2451 11.395-7.9582 6.6921-2.713 14.711-2.713 3.2556 0 6.2701 0.5426 3.0145 0.5426 5.5466 1.4469 2.5924 0.84405 4.6422 1.9895 2.0498 1.1455 2.8336 1.9895 0.84405 0.78376 1.1455 1.3264 0.30145 0.5426 0.48232 1.3866 0.18086 0.84405 0.24115 1.9895 0.12058 1.1455 0.12058 2.8336 0 1.8087-0.12058 3.0747-0.12058 1.2661-0.42202 2.0498-0.30145 0.78376-0.72347 1.1455-0.42202 0.36173-0.96463 0.36173-0.90433 0-2.291-1.0249-1.3866-1.0852-3.6173-2.3513-2.1704-1.3264-5.2452-2.3513-3.0145-1.0852-7.2347-1.0852-4.6423 0-8.3199 1.9292-3.6173 1.869-6.2098 5.426-2.5321 3.4968-3.8585 8.5008-1.3264 5.004-1.3264 11.274 0 6.873 1.3866 11.937 1.4469 5.004 4.0394 8.2596 2.6527 3.2556 6.3303 4.8834 3.7379 1.5675 8.3802 1.5675 4.2202 0 7.295-0.96462 3.0747-1.0249 5.2452-2.2307 2.2307-1.2058 3.6173-2.1704 1.4469-0.96463 2.2307-0.96463 0.60289 0 0.96462 0.24116 0.36174 0.24115 0.60289 0.96462 0.24116 0.72347 0.36174 2.0498 0.12058 1.2661 0.12058 3.4365z" fill="#ffc" image-rendering="auto" stroke-width=".26458"/><path transform="translate(4.4595)" d="m133.94 142.17q0 0.66318-0.24115 1.1455-0.24116 0.42202-1.1455 0.72347-0.90433 0.30144-2.6527 0.42202-1.7484 0.12058-4.7628 0.12058-2.5321 0-4.0394-0.12058t-2.4116-0.42202q-0.84405-0.36174-1.2058-0.84405-0.36174-0.5426-0.60289-1.2661l-6.9935-17.424q-1.2661-2.9542-2.4719-5.2452-1.2058-2.291-2.713-3.7982-1.4469-1.5675-3.3762-2.3513-1.9293-0.78376-4.4614-0.78376h-4.9437v29.723q0 0.60289-0.42202 1.0852-0.36173 0.48231-1.2661 0.78376-0.90434 0.30144-2.4116 0.48231-1.5072 0.18087-3.8585 0.18087-2.291 0-3.8585-0.18087-1.5072-0.18087-2.4116-0.48231-0.90434-0.30145-1.2661-0.78376-0.36174-0.48231-0.36174-1.0852v-70.84q0-2.6527 1.3264-3.7982 1.3866-1.2058 3.3762-1.2058h20.197q3.0748 0 5.0643 0.12058 1.9895 0.12058 3.6173 0.30144 4.7026 0.66318 8.4405 2.291 3.7982 1.6278 6.3906 4.2805 2.6527 2.5924 4.0394 6.2098 1.3866 3.5571 1.3866 8.1993 0 3.9188-1.0249 7.1744-0.96462 3.1953-2.8939 5.7275-1.9292 2.5321-4.7628 4.4011-2.8336 1.869-6.4509 3.0145 1.7484 0.84404 3.2556 2.0498 1.5675 1.2058 2.8939 2.9542 1.3866 1.6881 2.5924 3.9188 1.2058 2.1704 2.3513 4.9437l6.5715 15.374q0.90434 2.291 1.2058 3.3762 0.30144 1.0249 0.30144 1.6278zm-20.438-52.934q0-3.8585-1.7484-6.5112-1.7484-2.6527-5.7275-3.7379-1.2058-0.30144-2.7733-0.48231-1.5072-0.18087-4.2202-0.18087h-7.1141v22.126h8.0787q3.3762 0 5.9083-0.78375 2.5321-0.84405 4.2202-2.291 1.6881-1.5072 2.5321-3.5571 0.84405-2.0498 0.84405-4.582z" display="none" fill="#ffc" image-rendering="auto" stroke-width=".26458"/></g></svg>
