<?xml version="1.0" encoding="UTF-8" standalone="no"?>
<!-- Created with Inkscape (http://www.inkscape.org/) -->

<svg
   width="173.19717mm"
   height="221.02629mm"
   viewBox="-5 -6 173.19718 221.02629"
   version="1.1"
   id="svg5"
   xml:space="preserve"
   sodipodi:docname="RestaurantIcon.svg"
   inkscape:export-filename="CanteenIconn.svg"
   inkscape:export-xdpi="96"
   inkscape:export-ydpi="96"
   inkscape:version="1.2.2 (732a01da63, 2022-12-09)"
   xmlns:inkscape="http://www.inkscape.org/namespaces/inkscape"
   xmlns:sodipodi="http://sodipodi.sourceforge.net/DTD/sodipodi-0.dtd"
   xmlns="http://www.w3.org/2000/svg"
   xmlns:svg="http://www.w3.org/2000/svg"><sodipodi:namedview
     id="namedview208"
     pagecolor="#ffffff"
     bordercolor="#000000"
     borderopacity="0.25"
     inkscape:showpageshadow="2"
     inkscape:pageopacity="0.0"
     inkscape:pagecheckerboard="0"
     inkscape:deskcolor="#d1d1d1"
     inkscape:document-units="mm"
     showgrid="false"
     inkscape:zoom="0.71948113"
     inkscape:cx="-63.240019"
     inkscape:cy="338.43834"
     inkscape:window-width="1920"
     inkscape:window-height="1001"
     inkscape:window-x="-9"
     inkscape:window-y="-9"
     inkscape:window-maximized="1"
     inkscape:current-layer="g2035" /><defs
     id="defs2" /><g
     id="g2035"
     style="display:inline;image-rendering:auto"
     transform="translate(-27.942264,-23.223136)"><path
       id="path1845"
       style="display:none;fill:#ec5453;fill-opacity:1;stroke-width:0;stroke-dasharray:none;paint-order:markers stroke fill"
       d="m 109.4576,22.234235 c -44.974373,0 -81.564534,36.595798 -81.564534,81.577965 0,32.13945 13.456087,64.65082 38.913387,94.01855 19.013031,21.93392 37.857277,34.36132 38.650867,34.87901 1.21574,0.79457 2.60808,1.19114 4.00028,1.19114 1.39219,0 2.78505,-0.39657 4.00079,-1.19114 0.79261,-0.51866 19.63841,-12.94509 38.65242,-34.87901 25.45827,-29.36773 38.91493,-61.8791 38.91493,-94.01855 0,-44.982167 -36.59085,-81.577965 -81.56814,-81.577965 z" /><path
       id="path4543"
       style="display:inline;fill:#2fa499;fill-opacity:1;stroke:#ffffcc;stroke-width:10;stroke-dasharray:none;stroke-opacity:1;paint-order:stroke fill markers;image-rendering:auto"
       d="M 109.4576,22.234235 C 73.224227,21.604083 38.984354,48.275287 30.465412,83.448656 c -7.875408,33.347544 3.663536,68.403214 22.325694,96.126484 14.123462,20.70431 32.118393,38.79534 52.666214,53.13462 10.60422,3.4217 18.14025,-9.26664 26.27685,-14.3409 31.40505,-27.67782 56.86973,-65.68604 59.13423,-108.52701 2.90231,-34.043735 -18.06033,-68.288988 -49.69098,-81.186675 -9.9989,-4.247209 -20.85796,-6.431477 -31.71982,-6.42094 z" /><path
       d="m 133.84832,132.40054 q 0,1.50722 -0.12058,2.59243 -0.0603,1.02491 -0.24116,1.80867 -0.18087,0.72347 -0.48231,1.26607 -0.30145,0.5426 -0.96463,1.26607 -0.66318,0.66318 -2.59243,1.74838 -1.86896,1.08521 -4.64225,2.11012 -2.71301,0.96462 -6.27007,1.6278 -3.49676,0.66318 -7.59642,0.66318 -8.01844,0 -14.469373,-2.47185 -6.450929,-2.47185 -10.972609,-7.35526 -4.52168,-4.94371 -6.933242,-12.29897 -2.411563,-7.35527 -2.411563,-17.1221 0,-9.947691 2.652719,-17.664691 2.652719,-7.717 7.415555,-12.962149 4.762836,-5.245148 11.394633,-7.958156 6.69209,-2.713008 14.71053,-2.713008 3.25561,0 6.27006,0.542602 3.01446,0.542601 5.5466,1.446937 2.59243,0.844047 4.64225,1.989539 2.04983,1.145493 2.83359,1.98954 0.84405,0.783757 1.14549,1.326359 0.30145,0.542601 0.48232,1.386648 0.18086,0.844047 0.24115,1.989539 0.12058,1.145493 0.12058,2.833586 0,1.808672 -0.12058,3.074743 -0.12058,1.26607 -0.42202,2.049828 -0.30145,0.783757 -0.72347,1.145492 -0.42202,0.361734 -0.96463,0.361734 -0.90433,0 -2.29098,-1.024914 -1.38665,-1.085203 -3.61734,-2.351273 -2.17041,-1.32636 -5.24515,-2.351274 -3.01446,-1.085203 -7.23469,-1.085203 -4.64226,0 -8.31989,1.92925 -3.61734,1.868961 -6.209774,5.426016 -2.53214,3.496765 -3.8585,8.500758 -1.326359,5.003992 -1.326359,11.274057 0,6.87295 1.386648,11.93723 1.446938,5.00399 4.039368,8.2596 2.652717,3.25561 6.330347,4.88342 3.73793,1.56751 8.38018,1.56751 4.22024,0 7.29498,-0.96462 3.07474,-1.02492 5.24515,-2.2307 2.23069,-1.20578 3.61734,-2.1704 1.44694,-0.96463 2.2307,-0.96463 0.60289,0 0.96462,0.24116 0.36174,0.24115 0.60289,0.96462 0.24116,0.72347 0.36174,2.04983 0.12058,1.26607 0.12058,3.43648 z"
       style="font-weight:bold;font-size:123.472px;font-family:Calibri;-inkscape-font-specification:'Calibri, Bold';display:none;fill:#ffffcc;fill-opacity:1;stroke-width:0.264583;image-rendering:auto"
       id="path4001"
       transform="translate(4.4594606)"
       inkscape:label="C" /><path
       d="m 138.4796,142.16737 q 0,0.66318 -0.24115,1.14549 -0.24116,0.42202 -1.1455,0.72347 -0.90433,0.30144 -2.65272,0.42202 -1.74838,0.12058 -4.76283,0.12058 -2.53214,0 -4.03937,-0.12058 -1.50723,-0.12058 -2.41156,-0.42202 -0.84405,-0.36174 -1.20578,-0.84405 -0.36174,-0.5426 -0.60289,-1.26607 l -6.99353,-17.42354 q -1.26607,-2.95416 -2.47186,-5.24515 -1.20578,-2.29098 -2.713,-3.79821 -1.44694,-1.56751 -3.37619,-2.35127 -1.92925,-0.78376 -4.46139,-0.78376 h -4.943709 v 29.72251 q 0,0.60289 -0.42202,1.0852 -0.36173,0.48231 -1.26607,0.78376 -0.90434,0.30144 -2.41156,0.48231 -1.50723,0.18087 -3.8585,0.18087 -2.29099,0 -3.8585,-0.18087 -1.50723,-0.18087 -2.41156,-0.48231 -0.90434,-0.30145 -1.26607,-0.78376 -0.36174,-0.48231 -0.36174,-1.0852 V 71.207139 q 0,-2.652719 1.32636,-3.798211 1.38665,-1.205781 3.37619,-1.205781 h 20.196829 q 3.07475,0 5.06429,0.120578 1.98953,0.120578 3.61734,0.301445 4.70255,0.66318 8.44047,2.290984 3.79821,1.627805 6.39064,4.280524 2.65272,2.59243 4.03937,6.209773 1.38664,3.557055 1.38664,8.199313 0,3.918789 -1.02491,7.174398 -0.96462,3.195321 -2.89387,5.727458 -1.92925,2.53214 -4.76284,4.4011 -2.83359,1.86897 -6.45093,3.01446 1.74838,0.84404 3.25561,2.04983 1.56751,1.20578 2.89387,2.95416 1.38665,1.68809 2.59243,3.91879 1.20578,2.17041 2.35128,4.9437 l 6.5715,15.37371 q 0.90434,2.29099 1.20579,3.37619 0.30144,1.02491 0.30144,1.62781 z M 118.04161,89.233569 q 0,-3.8585 -1.74838,-6.511219 -1.74839,-2.652719 -5.72746,-3.737922 -1.20579,-0.301445 -2.7733,-0.482313 -1.50723,-0.180867 -4.22024,-0.180867 h -7.114109 v 22.126082 h 8.078739 q 3.37619,0 5.90833,-0.783754 2.53214,-0.844047 4.22023,-2.290984 1.6881,-1.507227 2.53214,-3.557055 0.84405,-2.049828 0.84405,-4.581968 z"
       style="font-weight:bold;font-size:123.472px;font-family:Calibri;-inkscape-font-specification:'Calibri, Bold';display:inline;fill:#ffffcc;fill-opacity:1;stroke-width:0.264583;image-rendering:auto"
       id="path4004"
       inkscape:label="R" /></g></svg>
